<svg id="_010-cooler-1" data-name="010-cooler-1" xmlns="http://www.w3.org/2000/svg" width="25.001" height="25" viewBox="0 0 25.001 25">
  <path id="Tracciato_187" data-name="Tracciato 187" d="M27.947,16.253c-1.92-2.646-5.775-2.47-8.354-1.575a3.631,3.631,0,0,0-1.526-1.419,4.448,4.448,0,0,1,3.873-2.173,3.277,3.277,0,0,0,1.718-6.042,7.079,7.079,0,0,0-7.412-.013c-2.641,1.935-2.466,5.768-1.571,8.354a3.631,3.631,0,0,0-1.419,1.526,4.448,4.448,0,0,1-2.173-3.873A3.277,3.277,0,0,0,5.042,9.318a7.079,7.079,0,0,0-.013,7.412,5.52,5.52,0,0,0,4.409,2.129,9.4,9.4,0,0,0,3.945-.558,3.63,3.63,0,0,0,1.526,1.419,4.448,4.448,0,0,1-3.873,2.173,3.226,3.226,0,0,0-3.191,3.838c.375,2.243,2.973,3.278,5.181,3.258,5.6.051,6.776-5.115,5.275-9.393a3.63,3.63,0,0,0,1.419-1.526,4.448,4.448,0,0,1,2.173,3.873,3.261,3.261,0,0,0,6.042,1.718,7.071,7.071,0,0,0,.013-7.408Zm-11.46,1.8a1.562,1.562,0,1,1,1.562-1.562,1.562,1.562,0,0,1-1.562,1.562Z" transform="translate(-3.987 -3.989)" fill="#2e2e2e"/>
  <path id="Tracciato_188" data-name="Tracciato 188" d="M31.169,30.5a.669.669,0,1,0,.669.669.669.669,0,0,0-.669-.669Z" transform="translate(-18.669 -18.67)" fill="#2e2e2e"/>
</svg>
