<svg id="_007-car" data-name="007-car" xmlns="http://www.w3.org/2000/svg" width="23.178" height="19.315" viewBox="0 0 23.178 19.315">
  <g id="Raggruppa_301" data-name="Raggruppa 301">
    <path id="Tracciato_179" data-name="Tracciato 179" d="M11.148,34.133a7.446,7.446,0,0,0-4.836,2.154L.851,42.355a3.823,3.823,0,0,0-.737,3.286L1.9,51.6a2.762,2.762,0,0,0,2.487,1.85H21.246a1.931,1.931,0,0,0,1.932-1.932V34.133H11.148ZM3.026,42.824l4.721-5.245a5.582,5.582,0,0,1,3.4-1.515h10.1v6.76Zm18.22,3.863H17.384V44.756h3.863v1.932Z" transform="translate(0 -34.133)" fill="#2e2e2e"/>
  </g>
</svg>
